<mxfile host="app.diagrams.net" modified="2023-11-12T02:35:05.375Z" agent="Mozilla/5.0 (Windows NT 10.0; Win64; x64) AppleWebKit/537.36 (KHTML, like Gecko) Chrome/119.0.0.0 Safari/537.36" etag="EBvEJf6g1-EB6hUKJdTw" version="22.1.0" type="device">
  <diagram name="Page-1" id="LqC4-iRO0LVJt1MGwDIF">
    <mxGraphModel dx="1687" dy="889" grid="1" gridSize="10" guides="1" tooltips="1" connect="1" arrows="1" fold="1" page="1" pageScale="1" pageWidth="2339" pageHeight="3300" math="0" shadow="0">
      <root>
        <mxCell id="0" />
        <mxCell id="1" parent="0" />
        <mxCell id="rO85ZTDEXJXMNIDpGOBe-3" style="rounded=0;orthogonalLoop=1;jettySize=auto;html=1;entryX=1;entryY=0.5;entryDx=0;entryDy=0;" edge="1" parent="1" source="rO85ZTDEXJXMNIDpGOBe-1" target="rO85ZTDEXJXMNIDpGOBe-2">
          <mxGeometry relative="1" as="geometry" />
        </mxCell>
        <mxCell id="rO85ZTDEXJXMNIDpGOBe-9" style="rounded=0;orthogonalLoop=1;jettySize=auto;html=1;exitX=0;exitY=1;exitDx=0;exitDy=0;entryX=1;entryY=0;entryDx=0;entryDy=0;" edge="1" parent="1" source="rO85ZTDEXJXMNIDpGOBe-1" target="rO85ZTDEXJXMNIDpGOBe-4">
          <mxGeometry relative="1" as="geometry" />
        </mxCell>
        <mxCell id="rO85ZTDEXJXMNIDpGOBe-1" value="&lt;b&gt;&lt;font style=&quot;font-size: 18px;&quot;&gt;Tree Type&lt;/font&gt;&lt;/b&gt;" style="rounded=0;whiteSpace=wrap;html=1;" vertex="1" parent="1">
          <mxGeometry x="840" y="200" width="220" height="90" as="geometry" />
        </mxCell>
        <mxCell id="rO85ZTDEXJXMNIDpGOBe-5" style="rounded=0;orthogonalLoop=1;jettySize=auto;html=1;exitX=0.5;exitY=1;exitDx=0;exitDy=0;entryX=0.5;entryY=0;entryDx=0;entryDy=0;" edge="1" parent="1" source="rO85ZTDEXJXMNIDpGOBe-2" target="rO85ZTDEXJXMNIDpGOBe-4">
          <mxGeometry relative="1" as="geometry" />
        </mxCell>
        <mxCell id="rO85ZTDEXJXMNIDpGOBe-2" value="&lt;b&gt;&lt;font style=&quot;font-size: 18px;&quot;&gt;Tree&lt;/font&gt;&lt;/b&gt;" style="rounded=0;whiteSpace=wrap;html=1;" vertex="1" parent="1">
          <mxGeometry x="440" y="200" width="220" height="90" as="geometry" />
        </mxCell>
        <mxCell id="rO85ZTDEXJXMNIDpGOBe-4" value="&lt;b&gt;&lt;font style=&quot;font-size: 18px;&quot;&gt;Tree Factory&lt;/font&gt;&lt;/b&gt;" style="rounded=0;whiteSpace=wrap;html=1;" vertex="1" parent="1">
          <mxGeometry x="440" y="480" width="220" height="90" as="geometry" />
        </mxCell>
        <mxCell id="rO85ZTDEXJXMNIDpGOBe-10" value="&lt;font style=&quot;font-size: 15px;&quot;&gt;The tree factory used to store list of tree based on tree type&lt;/font&gt;" style="text;html=1;strokeColor=none;fillColor=none;align=center;verticalAlign=middle;whiteSpace=wrap;rounded=0;" vertex="1" parent="1">
          <mxGeometry x="380" y="580" width="390" height="60" as="geometry" />
        </mxCell>
      </root>
    </mxGraphModel>
  </diagram>
</mxfile>
